<?xml version="1.0" encoding="UTF-8" standalone="no"?>
<!-- Created by Symbolator http://kevinpt.github.io/symbolator -->
<svg xmlns="http://www.w3.org/2000/svg"
xmlns:xlink="http://www.w3.org/1999/xlink"
xml:space="preserve"
width="678" height="513" viewBox="-199 -20 678.0 513.0" version="1.1">
<style type="text/css">
<![CDATA[
.fnt1 {fill:#000000;
    font-family:Times; font-size:12pt; font-weight:normal; font-style:italic;}
.fnt2 {fill:#000000;
    font-family:Helvetica; font-size:12pt; font-weight:normal; font-style:normal;}
.label {fill:#000;
  text-anchor:middle;
  font-size:16pt; font-weight:bold; font-family:Sans;}
.link {fill: #0D47A1;}
.link:hover {fill: #0D47A1; text-decoration:underline;}
.link:visited {fill: #4A148C;}
]]>
</style>
<defs>
<marker id="clock" markerWidth="8.0" markerHeight="15.0" viewBox="0 0 8.0 15.0" refX="0.5" refY="7.5" orient="auto" markerUnits="userSpaceOnUse">
<g transform="translate(0.5,7.5)"><path d="M 0 -7 L 0 7 L 7 0 z" stroke="#000000" fill="#FFFFFF" stroke-width="1"/>
</g>
</marker>
</defs>
<rect x="-199" y="-20" width="100%" height="100%" fill="white"/><g transform="translate(0,0)">
<rect x="0" y="-15.0" width="280" height="67.0" stroke="#000000" fill="#C5DBFC" stroke-width="1"/>
<text class="fnt1" x="140.0" y="0" text-anchor="middle" dy="2.5">Global control</text>
<g transform="translate(0,17)">
<line x1="-20" y1="0" x2="0" y2="0" stroke="#000000" fill="none" stroke-width="1" marker-end="url(#clock)"/>
<text class="fnt2" x="10" y="0" text-anchor="normal" dy="3.5">clk_i</text>
<text class="fnt2" x="-30" y="0" text-anchor="end" dy="3.5" style="fill:#969696">std_ulogic</text>
</g>
<g transform="translate(0,37)">
<line x1="-20" y1="0" x2="0" y2="0" stroke="#000000" fill="none" stroke-width="1"/>
<text class="fnt2" x="10" y="0" text-anchor="normal" dy="3.5">rstn_i</text>
<text class="fnt2" x="-30" y="0" text-anchor="end" dy="3.5" style="fill:#969696">std_ulogic</text>
</g>
</g>
<g transform="translate(0,67.0)">
<rect x="0" y="-15.0" width="280" height="47.0" stroke="#000000" fill="#E7FDBA" stroke-width="1"/>
<text class="fnt1" x="140.0" y="0" text-anchor="middle" dy="2.5">Primary UART0</text>
<g transform="translate(0,17)">
<line x1="-20" y1="0" x2="0" y2="0" stroke="#000000" fill="none" stroke-width="1"/>
<text class="fnt2" x="10" y="0" text-anchor="normal" dy="3.5">uart0_rxd_i</text>
<text class="fnt2" x="-30" y="0" text-anchor="end" dy="3.5" style="fill:#969696">std_ulogic</text>
</g>
<g transform="translate(280,17)">
<line x1="20" y1="0" x2="0" y2="0" stroke="#000000" fill="none" stroke-width="1"/>
<text class="fnt2" x="-10" y="0" text-anchor="end" dy="3.5">uart0_txd_o</text>
<text class="fnt2" x="30" y="0" text-anchor="normal" dy="3.5" style="fill:#969696">std_ulogic</text>
</g>
</g>
<g transform="translate(0,114.0)">
<rect x="0" y="-15.0" width="280" height="107.0" stroke="#000000" fill="#FFAFFD" stroke-width="1"/>
<text class="fnt1" x="140.0" y="0" text-anchor="middle" dy="2.5">JTAG</text>
<g transform="translate(0,17)">
<line x1="-20" y1="0" x2="0" y2="0" stroke="#000000" fill="none" stroke-width="1"/>
<text class="fnt2" x="10" y="0" text-anchor="normal" dy="3.5">jtag_trst_i</text>
<text class="fnt2" x="-30" y="0" text-anchor="end" dy="3.5" style="fill:#969696">std_ulogic</text>
</g>
<g transform="translate(0,37)">
<line x1="-20" y1="0" x2="0" y2="0" stroke="#000000" fill="none" stroke-width="1"/>
<text class="fnt2" x="10" y="0" text-anchor="normal" dy="3.5">jtag_tck_i</text>
<text class="fnt2" x="-30" y="0" text-anchor="end" dy="3.5" style="fill:#969696">std_ulogic</text>
</g>
<g transform="translate(0,57)">
<line x1="-20" y1="0" x2="0" y2="0" stroke="#000000" fill="none" stroke-width="1"/>
<text class="fnt2" x="10" y="0" text-anchor="normal" dy="3.5">jtag_tdi_i</text>
<text class="fnt2" x="-30" y="0" text-anchor="end" dy="3.5" style="fill:#969696">std_ulogic</text>
</g>
<g transform="translate(0,77)">
<line x1="-20" y1="0" x2="0" y2="0" stroke="#000000" fill="none" stroke-width="1"/>
<text class="fnt2" x="10" y="0" text-anchor="normal" dy="3.5">jtag_tms_i</text>
<text class="fnt2" x="-30" y="0" text-anchor="end" dy="3.5" style="fill:#969696">std_ulogic</text>
</g>
<g transform="translate(280,17)">
<line x1="20" y1="0" x2="0" y2="0" stroke="#000000" fill="none" stroke-width="1"/>
<text class="fnt2" x="-10" y="0" text-anchor="end" dy="3.5">jtag_tdo_o</text>
<text class="fnt2" x="30" y="0" text-anchor="normal" dy="3.5" style="fill:#969696">std_ulogic</text>
</g>
</g>
<g transform="translate(0,221.0)">
<rect x="0" y="-15.0" width="280" height="147.0" stroke="#000000" fill="#B9FDE9" stroke-width="1"/>
<text class="fnt1" x="140.0" y="0" text-anchor="middle" dy="2.5">Wishbone bus interface</text>
<g transform="translate(0,17)">
<line x1="-20" y1="0" x2="0" y2="0" stroke="#000000" fill="none" stroke-width="3"/>
<text class="fnt2" x="10" y="0" text-anchor="normal" dy="3.5">wb_dat_i</text>
<text class="fnt2" x="-30" y="0" text-anchor="end" dy="3.5" style="fill:#969696">std_ulogic_vector<tspan fill="#039BE5">[31:0]</tspan></text>
</g>
<g transform="translate(0,37)">
<line x1="-20" y1="0" x2="0" y2="0" stroke="#000000" fill="none" stroke-width="1"/>
<text class="fnt2" x="10" y="0" text-anchor="normal" dy="3.5">wb_ack_i</text>
<text class="fnt2" x="-30" y="0" text-anchor="end" dy="3.5" style="fill:#969696">std_ulogic</text>
</g>
<g transform="translate(0,57)">
<line x1="-20" y1="0" x2="0" y2="0" stroke="#000000" fill="none" stroke-width="1"/>
<text class="fnt2" x="10" y="0" text-anchor="normal" dy="3.5">wb_err_i</text>
<text class="fnt2" x="-30" y="0" text-anchor="end" dy="3.5" style="fill:#969696">std_ulogic</text>
</g>
<g transform="translate(280,17)">
<line x1="20" y1="0" x2="0" y2="0" stroke="#000000" fill="none" stroke-width="3"/>
<text class="fnt2" x="-10" y="0" text-anchor="end" dy="3.5">wb_adr_o</text>
<text class="fnt2" x="30" y="0" text-anchor="normal" dy="3.5" style="fill:#969696">std_ulogic_vector<tspan fill="#039BE5">[31:0]</tspan></text>
</g>
<g transform="translate(280,37)">
<line x1="20" y1="0" x2="0" y2="0" stroke="#000000" fill="none" stroke-width="3"/>
<text class="fnt2" x="-10" y="0" text-anchor="end" dy="3.5">wb_dat_o</text>
<text class="fnt2" x="30" y="0" text-anchor="normal" dy="3.5" style="fill:#969696">std_ulogic_vector<tspan fill="#039BE5">[31:0]</tspan></text>
</g>
<g transform="translate(280,57)">
<line x1="20" y1="0" x2="0" y2="0" stroke="#000000" fill="none" stroke-width="1"/>
<text class="fnt2" x="-10" y="0" text-anchor="end" dy="3.5">wb_we_o</text>
<text class="fnt2" x="30" y="0" text-anchor="normal" dy="3.5" style="fill:#969696">std_ulogic</text>
</g>
<g transform="translate(280,77)">
<line x1="20" y1="0" x2="0" y2="0" stroke="#000000" fill="none" stroke-width="3"/>
<text class="fnt2" x="-10" y="0" text-anchor="end" dy="3.5">wb_sel_o</text>
<text class="fnt2" x="30" y="0" text-anchor="normal" dy="3.5" style="fill:#969696">std_ulogic_vector<tspan fill="#039BE5">[03:0]</tspan></text>
</g>
<g transform="translate(280,97)">
<line x1="20" y1="0" x2="0" y2="0" stroke="#000000" fill="none" stroke-width="1"/>
<text class="fnt2" x="-10" y="0" text-anchor="end" dy="3.5">wb_stb_o</text>
<text class="fnt2" x="30" y="0" text-anchor="normal" dy="3.5" style="fill:#969696">std_ulogic</text>
</g>
<g transform="translate(280,117)">
<line x1="20" y1="0" x2="0" y2="0" stroke="#000000" fill="none" stroke-width="1"/>
<text class="fnt2" x="-10" y="0" text-anchor="end" dy="3.5">wb_cyc_o</text>
<text class="fnt2" x="30" y="0" text-anchor="normal" dy="3.5" style="fill:#969696">std_ulogic</text>
</g>
</g>
<g transform="translate(0,368.0)">
<rect x="0" y="-15.0" width="280" height="87.0" stroke="#000000" fill="#FBDCC4" stroke-width="1"/>
<text class="fnt1" x="140.0" y="0" text-anchor="middle" dy="2.5">SPI interface</text>
<g transform="translate(0,17)">
<line x1="-20" y1="0" x2="0" y2="0" stroke="#000000" fill="none" stroke-width="1"/>
<text class="fnt2" x="10" y="0" text-anchor="normal" dy="3.5">spi_dat_i</text>
<text class="fnt2" x="-30" y="0" text-anchor="end" dy="3.5" style="fill:#969696">std_ulogic</text>
</g>
<g transform="translate(280,17)">
<line x1="20" y1="0" x2="0" y2="0" stroke="#000000" fill="none" stroke-width="1"/>
<text class="fnt2" x="-10" y="0" text-anchor="end" dy="3.5">spi_clk_o</text>
<text class="fnt2" x="30" y="0" text-anchor="normal" dy="3.5" style="fill:#969696">std_ulogic</text>
</g>
<g transform="translate(280,37)">
<line x1="20" y1="0" x2="0" y2="0" stroke="#000000" fill="none" stroke-width="1"/>
<text class="fnt2" x="-10" y="0" text-anchor="end" dy="3.5">spi_dat_o</text>
<text class="fnt2" x="30" y="0" text-anchor="normal" dy="3.5" style="fill:#969696">std_ulogic</text>
</g>
<g transform="translate(280,57)">
<line x1="20" y1="0" x2="0" y2="0" stroke="#000000" fill="none" stroke-width="3"/>
<text class="fnt2" x="-10" y="0" text-anchor="end" dy="3.5">spi_csn_o</text>
<text class="fnt2" x="30" y="0" text-anchor="normal" dy="3.5" style="fill:#969696">std_ulogic_vector<tspan fill="#039BE5">[07:0]</tspan></text>
</g>
</g>
<g transform="translate(0,455.0)">
<rect x="0" y="-15.0" width="280" height="47.0" stroke="#000000" fill="#D3CBFE" stroke-width="1"/>
<text class="fnt1" x="140.0" y="0" text-anchor="middle" dy="2.5">GPIO</text>
<g transform="translate(0,17)">
<line x1="-20" y1="0" x2="0" y2="0" stroke="#000000" fill="none" stroke-width="3"/>
<text class="fnt2" x="10" y="0" text-anchor="normal" dy="3.5">gpio_i</text>
<text class="fnt2" x="-30" y="0" text-anchor="end" dy="3.5" style="fill:#969696">std_ulogic_vector<tspan fill="#039BE5">[63:0]</tspan></text>
</g>
<g transform="translate(280,17)">
<line x1="20" y1="0" x2="0" y2="0" stroke="#000000" fill="none" stroke-width="3"/>
<text class="fnt2" x="-10" y="0" text-anchor="end" dy="3.5">gpio_o</text>
<text class="fnt2" x="30" y="0" text-anchor="normal" dy="3.5" style="fill:#969696">std_ulogic_vector<tspan fill="#039BE5">[63:0]</tspan></text>
</g>
</g>
<rect x="1.0" y="-14.0" width="278.0" height="500.0" stroke="#000000" fill="none" stroke-width="3"/>
</svg>
