<?xml version="1.0" encoding="UTF-8" standalone="no"?>
<!-- Created by Symbolator http://kevinpt.github.io/symbolator -->
<svg xmlns="http://www.w3.org/2000/svg"
xmlns:xlink="http://www.w3.org/1999/xlink"
xml:space="preserve"
width="460" height="205" viewBox="-99 -20 460.0 205.0" version="1.1">
<style type="text/css">
<![CDATA[
.fnt1 {fill:#000000;
    font-family:Times; font-size:12pt; font-weight:normal; font-style:italic;}
.fnt2 {fill:#000000;
    font-family:Helvetica; font-size:12pt; font-weight:normal; font-style:normal;}
.label {fill:#000;
  text-anchor:middle;
  font-size:16pt; font-weight:bold; font-family:Sans;}
.link {fill: #0D47A1;}
.link:hover {fill: #0D47A1; text-decoration:underline;}
.link:visited {fill: #4A148C;}
]]>
</style>
<defs>
<marker id="clock" markerWidth="8.0" markerHeight="15.0" viewBox="0 0 8.0 15.0" refX="0.5" refY="7.5" orient="auto" markerUnits="userSpaceOnUse">
<g transform="translate(0.5,7.5)"><path d="M 0 -7 L 0 7 L 7 0 z" stroke="#000000" fill="#FFFFFF" stroke-width="1"/>
</g>
</marker>
<marker id="bubble" markerWidth="7.0" markerHeight="7.0" viewBox="0 0 7.0 7.0" refX="3.5" refY="3.5" orient="auto" markerUnits="userSpaceOnUse">
<g transform="translate(3.5,3.5)"><ellipse cx="0.0" cy="0.0" rx="3.0" ry="3.0" stroke="#000000" fill="#FFFFFF" stroke-width="1"/>
</g>
</marker>
</defs>
<rect x="-99" y="-20" width="100%" height="100%" fill="white"/><g transform="translate(0,0)">
<rect x="0" y="-15.0" width="260" height="87.0" stroke="#000000" fill="#C5DBFC" stroke-width="1"/>
<text class="fnt1" x="130.0" y="0" text-anchor="middle" dy="2.5">SPI interface</text>
<g transform="translate(0,17)">
<line x1="-20" y1="0" x2="0" y2="0" stroke="#000000" fill="none" stroke-width="1" marker-end="url(#clock)"/>
<text class="fnt2" x="10" y="0" text-anchor="normal" dy="3.5">clk_i</text>
<text class="fnt2" x="-30" y="0" text-anchor="end" dy="3.5" style="fill:#969696">wire</text>
</g>
<g transform="translate(0,37)">
<line x1="-20" y1="0" x2="0" y2="0" stroke="#000000" fill="none" stroke-width="1"/>
<text class="fnt2" x="10" y="0" text-anchor="normal" dy="3.5">mosi</text>
<text class="fnt2" x="-30" y="0" text-anchor="end" dy="3.5" style="fill:#969696">wire</text>
</g>
<g transform="translate(0,57)">
<line x1="-20" y1="0" x2="-3.5" y2="0.0" stroke="#000000" fill="none" stroke-width="1" marker-end="url(#bubble)"/>
<text class="fnt2" x="10" y="0" text-anchor="normal" dy="3.5">cs_n</text>
<text class="fnt2" x="-30" y="0" text-anchor="end" dy="3.5" style="fill:#969696">wire</text>
</g>
<g transform="translate(260,17)">
<line x1="20" y1="0" x2="0" y2="0" stroke="#000000" fill="none" stroke-width="1"/>
<text class="fnt2" x="-10" y="0" text-anchor="end" dy="3.5">miso</text>
<text class="fnt2" x="30" y="0" text-anchor="normal" dy="3.5" style="fill:#969696">wire</text>
</g>
</g>
<g transform="translate(0,87.0)">
<rect x="0" y="-15.0" width="260" height="107.0" stroke="#000000" fill="#E7FDBA" stroke-width="1"/>
<text class="fnt1" x="130.0" y="0" text-anchor="middle" dy="2.5">Interface to data provider</text>
<g transform="translate(0,17)">
<line x1="-20" y1="0" x2="0" y2="0" stroke="#000000" fill="none" stroke-width="3"/>
<text class="fnt2" x="10" y="0" text-anchor="normal" dy="3.5">data_i</text>
<text class="fnt2" x="-30" y="0" text-anchor="end" dy="3.5" style="fill:#969696">wire <tspan fill="#039BE5">[7:0]</tspan></text>
</g>
<g transform="translate(0,37)">
<line x1="-20" y1="0" x2="0" y2="0" stroke="#000000" fill="none" stroke-width="1"/>
<text class="fnt2" x="10" y="0" text-anchor="normal" dy="3.5">wr_done</text>
<text class="fnt2" x="-30" y="0" text-anchor="end" dy="3.5" style="fill:#969696">wire</text>
</g>
<g transform="translate(0,57)">
<line x1="-20" y1="0" x2="0" y2="0" stroke="#000000" fill="none" stroke-width="1"/>
<text class="fnt2" x="10" y="0" text-anchor="normal" dy="3.5">data_rd</text>
<text class="fnt2" x="-30" y="0" text-anchor="end" dy="3.5" style="fill:#969696">wire</text>
</g>
<g transform="translate(260,17)">
<line x1="20" y1="0" x2="0" y2="0" stroke="#000000" fill="none" stroke-width="3"/>
<text class="fnt2" x="-10" y="0" text-anchor="end" dy="3.5">data_o</text>
<text class="fnt2" x="30" y="0" text-anchor="normal" dy="3.5" style="fill:#969696">reg <tspan fill="#039BE5">[7:0]</tspan></text>
</g>
<g transform="translate(260,37)">
<line x1="20" y1="0" x2="0" y2="0" stroke="#000000" fill="none" stroke-width="3"/>
<text class="fnt2" x="-10" y="0" text-anchor="end" dy="3.5">addr_o</text>
<text class="fnt2" x="30" y="0" text-anchor="normal" dy="3.5" style="fill:#969696">reg <tspan fill="#039BE5">[15:0]</tspan></text>
</g>
<g transform="translate(260,57)">
<line x1="20" y1="0" x2="0" y2="0" stroke="#000000" fill="none" stroke-width="1"/>
<text class="fnt2" x="-10" y="0" text-anchor="end" dy="3.5">data_wr</text>
<text class="fnt2" x="30" y="0" text-anchor="normal" dy="3.5" style="fill:#969696">reg</text>
</g>
<g transform="translate(260,77)">
<line x1="20" y1="0" x2="0" y2="0" stroke="#000000" fill="none" stroke-width="1"/>
<text class="fnt2" x="-10" y="0" text-anchor="end" dy="3.5">data_req</text>
<text class="fnt2" x="30" y="0" text-anchor="normal" dy="3.5" style="fill:#969696">reg</text>
</g>
</g>
<rect x="1.0" y="-14.0" width="258.0" height="192.0" stroke="#000000" fill="none" stroke-width="3"/>
</svg>
